<?xml version="1.0" encoding="utf-8"?>
<!-- Generator: Adobe Illustrator 21.1.0, SVG Export Plug-In . SVG Version: 6.00 Build 0)  -->
<svg version="1.1" id="Layer_1" xmlns="http://www.w3.org/2000/svg" xmlns:xlink="http://www.w3.org/1999/xlink" x="0px" y="0px"
	 width="500px" height="500px" viewBox="0 0 500 500" style="enable-background:new 0 0 500 500;" xml:space="preserve">
<style type="text/css">
	.st0{fill:#FFFFFF;}
</style>
<g>
	<path class="st0" d="M343.8,31.2H62.5C28,31.2,0,59.2,0,93.7v343.8l48.7-50.9c7.1-7.4,16.9-11.6,27.1-11.6h268
		c34.5,0,62.5-28,62.5-62.5V93.7C406.2,59.2,378.3,31.2,343.8,31.2z M93.8,156.2c0-17.3,14-31.3,31.2-31.3s31.2,14,31.2,31.3
		s-14,31.2-31.2,31.2S93.8,173.5,93.8,156.2z M203.1,296.9c-41.1,0-74.8-31.8-77.9-72.1c-0.2-3.2,2.3-6,5.5-6h144.8
		c3.2,0,5.8,2.8,5.5,6C278,265.1,244.3,296.9,203.1,296.9z M281.2,187.5c-17.3,0-31.2-14-31.2-31.2c0-17.3,14-31.3,31.2-31.3
		s31.2,14,31.2,31.3C312.5,173.5,298.5,187.5,281.2,187.5z"/>
</g>
<path class="st0" d="M468.8,93.7h-25c-3.5,0-6.2,2.8-6.2,6.2v243.7c0,51.8-42,93.8-93.8,93.8h-62.5v-6.2c0-13.8-11.2-25-25-25h-75
	c-13.8,0-25,11.2-25,25v6.2v6.2c0,13.8,11.2,25,25,25h100h62.5c69,0,125-56,125-125V250l0,0c17.3,0,31.2-14,31.2-31.2V125
	C500,107.7,486,93.7,468.8,93.7L468.8,93.7z"/>
</svg>
